<svg width="800" height="450" xmlns="http://www.w3.org/2000/svg">
  <rect width="800" height="450" fill="#0F1524"/>
  <rect x="20" y="20" width="760" height="40" rx="4" fill="#161D30"/>
  <circle cx="45" cy="40" r="6" fill="#FF79C6"/>
  <circle cx="65" cy="40" r="6" fill="#FFB86C"/>
  <circle cx="85" cy="40" r="6" fill="#3DFF9A"/>
  <text x="400" y="44" fill="#94A3B8" font-family="monospace" font-size="14" text-anchor="middle">BookEasy — Booking System Dashboard</text>
  <rect x="20" y="80" width="180" height="350" rx="4" fill="#161D30"/>
  <text x="110" y="110" fill="#00D9FF" font-family="monospace" font-size="12" text-anchor="middle">Navigation</text>
  <rect x="40" y="130" width="140" height="28" rx="3" fill="#1C2540"/>
  <text x="110" y="148" fill="#E2E8F0" font-family="monospace" font-size="11" text-anchor="middle">Dashboard</text>
  <rect x="40" y="166" width="140" height="28" rx="3" fill="#0A0E1A"/>
  <text x="110" y="184" fill="#94A3B8" font-family="monospace" font-size="11" text-anchor="middle">Bookings</text>
  <rect x="40" y="202" width="140" height="28" rx="3" fill="#0A0E1A"/>
  <text x="110" y="220" fill="#94A3B8" font-family="monospace" font-size="11" text-anchor="middle">Availability</text>
  <rect x="40" y="238" width="140" height="28" rx="3" fill="#0A0E1A"/>
  <text x="110" y="256" fill="#94A3B8" font-family="monospace" font-size="11" text-anchor="middle">Payments</text>
  <rect x="220" y="80" width="560" height="160" rx="4" fill="#161D30"/>
  <text x="500" y="110" fill="#E2E8F0" font-family="monospace" font-size="14" text-anchor="middle">Booking Pipeline — Real-time</text>
  <rect x="240" y="130" width="120" height="90" rx="4" fill="#0A0E1A"/>
  <text x="300" y="160" fill="#3DFF9A" font-family="monospace" font-size="24" text-anchor="middle">247</text>
  <text x="300" y="180" fill="#94A3B8" font-family="monospace" font-size="10" text-anchor="middle">Active Bookings</text>
  <rect x="380" y="130" width="120" height="90" rx="4" fill="#0A0E1A"/>
  <text x="440" y="160" fill="#00D9FF" font-family="monospace" font-size="24" text-anchor="middle">98.7%</text>
  <text x="440" y="180" fill="#94A3B8" font-family="monospace" font-size="10" text-anchor="middle">Success Rate</text>
  <rect x="520" y="130" width="120" height="90" rx="4" fill="#0A0E1A"/>
  <text x="580" y="160" fill="#BD93F9" font-family="monospace" font-size="24" text-anchor="middle">151</text>
  <text x="580" y="180" fill="#94A3B8" font-family="monospace" font-size="10" text-anchor="middle">Test Files</text>
  <rect x="660" y="130" width="100" height="90" rx="4" fill="#0A0E1A"/>
  <text x="710" y="160" fill="#FFB86C" font-family="monospace" font-size="24" text-anchor="middle">0</text>
  <text x="710" y="180" fill="#94A3B8" font-family="monospace" font-size="10" text-anchor="middle">Double Books</text>
  <rect x="220" y="260" width="560" height="160" rx="4" fill="#161D30"/>
  <text x="500" y="290" fill="#E2E8F0" font-family="monospace" font-size="14" text-anchor="middle">Recent Transactions — Saga Pattern</text>
  <rect x="240" y="310" width="520" height="24" rx="2" fill="#0A0E1A"/>
  <text x="260" y="326" fill="#3DFF9A" font-family="monospace" font-size="11">✓ reserve → charge → confirm</text>
  <text x="700" y="326" fill="#94A3B8" font-family="monospace" font-size="11" text-anchor="end">230ms</text>
  <rect x="240" y="342" width="520" height="24" rx="2" fill="#0A0E1A"/>
  <text x="260" y="358" fill="#3DFF9A" font-family="monospace" font-size="11">✓ reserve → charge → confirm</text>
  <text x="700" y="358" fill="#94A3B8" font-family="monospace" font-size="11" text-anchor="end">185ms</text>
  <rect x="240" y="374" width="520" height="24" rx="2" fill="#0A0E1A"/>
  <text x="260" y="390" fill="#FFB86C" font-family="monospace" font-size="11">⟲ reserve → charge ✗ → refund → release</text>
  <text x="700" y="390" fill="#94A3B8" font-family="monospace" font-size="11" text-anchor="end">340ms</text>
</svg>
