<svg width="800" height="450" xmlns="http://www.w3.org/2000/svg">
  <rect width="800" height="450" fill="#0F1524"/>
  <rect x="20" y="20" width="760" height="40" rx="4" fill="#161D30"/>
  <circle cx="45" cy="40" r="6" fill="#FF79C6"/>
  <circle cx="65" cy="40" r="6" fill="#FFB86C"/>
  <circle cx="85" cy="40" r="6" fill="#3DFF9A"/>
  <text x="400" y="44" fill="#94A3B8" font-family="monospace" font-size="14" text-anchor="middle">FlowBoard — Real-time Kanban</text>
  <!-- Kanban columns -->
  <rect x="20" y="80" width="185" height="350" rx="4" fill="#161D30"/>
  <text x="112" y="105" fill="#94A3B8" font-family="monospace" font-size="12" text-anchor="middle">TODO (4)</text>
  <rect x="35" y="120" width="155" height="60" rx="4" fill="#0A0E1A" stroke="#1C2540" stroke-width="1"/>
  <text x="112" y="145" fill="#E2E8F0" font-family="monospace" font-size="11" text-anchor="middle">Setup CI pipeline</text>
  <text x="112" y="162" fill="#BD93F9" font-family="monospace" font-size="9" text-anchor="middle">SP: 3 · DevOps</text>
  <rect x="35" y="190" width="155" height="60" rx="4" fill="#0A0E1A" stroke="#1C2540" stroke-width="1"/>
  <text x="112" y="215" fill="#E2E8F0" font-family="monospace" font-size="11" text-anchor="middle">Add rate limiting</text>
  <text x="112" y="232" fill="#FFB86C" font-family="monospace" font-size="9" text-anchor="middle">SP: 2 · Backend</text>
  <rect x="215" y="80" width="185" height="350" rx="4" fill="#161D30"/>
  <text x="307" y="105" fill="#00D9FF" font-family="monospace" font-size="12" text-anchor="middle">IN PROGRESS (2)</text>
  <rect x="230" y="120" width="155" height="60" rx="4" fill="#0A0E1A" stroke="#00D9FF33" stroke-width="1"/>
  <text x="307" y="145" fill="#E2E8F0" font-family="monospace" font-size="11" text-anchor="middle">WebSocket gateway</text>
  <text x="307" y="162" fill="#3DFF9A" font-family="monospace" font-size="9" text-anchor="middle">SP: 5 · Backend</text>
  <rect x="410" y="80" width="185" height="350" rx="4" fill="#161D30"/>
  <text x="502" y="105" fill="#BD93F9" font-family="monospace" font-size="12" text-anchor="middle">REVIEW (1)</text>
  <rect x="425" y="120" width="155" height="60" rx="4" fill="#0A0E1A" stroke="#BD93F933" stroke-width="1"/>
  <text x="502" y="145" fill="#E2E8F0" font-family="monospace" font-size="11" text-anchor="middle">Drag-and-drop</text>
  <text x="502" y="162" fill="#FF79C6" font-family="monospace" font-size="9" text-anchor="middle">SP: 8 · Frontend</text>
  <rect x="605" y="80" width="175" height="350" rx="4" fill="#161D30"/>
  <text x="692" y="105" fill="#3DFF9A" font-family="monospace" font-size="12" text-anchor="middle">DONE (7)</text>
  <rect x="620" y="120" width="145" height="50" rx="4" fill="#0A0E1A" stroke="#3DFF9A33" stroke-width="1"/>
  <text x="692" y="145" fill="#94A3B8" font-family="monospace" font-size="11" text-anchor="middle">Auth + RBAC</text>
  <rect x="620" y="180" width="145" height="50" rx="4" fill="#0A0E1A" stroke="#3DFF9A33" stroke-width="1"/>
  <text x="692" y="205" fill="#94A3B8" font-family="monospace" font-size="11" text-anchor="middle">Prisma schema</text>
  <rect x="620" y="240" width="145" height="50" rx="4" fill="#0A0E1A" stroke="#3DFF9A33" stroke-width="1"/>
  <text x="692" y="265" fill="#94A3B8" font-family="monospace" font-size="11" text-anchor="middle">Task CRUD API</text>
  <!-- Live indicator -->
  <circle cx="750" cy="40" r="5" fill="#3DFF9A">
    <animate attributeName="opacity" values="1;0.3;1" dur="2s" repeatCount="indefinite"/>
  </circle>
  <text x="735" y="44" fill="#3DFF9A" font-family="monospace" font-size="10" text-anchor="end">LIVE</text>
</svg>
